# xmcd
#
# Track frame offsets: 
#        150
#        31811
#        54658
#        76741
#        101114
#        126736
#        147323
#        168179
#        190291
#        207789
#        228679
#        246908
#
# Disc length: 3545 seconds
#
# Revision: 0
# Processed by: cddbd v1.5.2PL0 Copyright (c) Steve Scherf et al.
# Submitted via: ExactAudioCopyFreeDBPlugin 1.0
#
DISCID=aa0dd70c
DTITLE=Aris Paul Band - Drive All Night
DYEAR=2019
DGENRE=Blues
TTITLE0=Guitar Man
TTITLE1=Waste of Time
TTITLE2=Bad Habits, Bad Luck
TTITLE3=Wheels
TTITLE4=Play
TTITLE5=Drive All Night
TTITLE6=Radio (feat. Bill Toms)
TTITLE7=Come and Go (feat. Madeline Rae)
TTITLE8=You Can't Fix Lonely (feat. Johnny Rooster)
TTITLE9=Fast Track
TTITLE10=Home
TTITLE11=Rambler's Creed
EXTD=
EXTT0=
EXTT1=
EXTT2=
EXTT3=
EXTT4=
EXTT5=
EXTT6=
EXTT7=
EXTT8=
EXTT9=
EXTT10=
EXTT11=
PLAYORDER=
